<mxfile host="app.diagrams.net" modified="2025-01-11" agent="Claude Code" version="24.0.0" type="device">
  <diagram name="固定資産取得プロセス業務フロー図" id="process-flow-template">
    <mxGraphModel dx="1422" dy="794" grid="1" gridSize="10" guides="1" tooltips="1" connect="1" arrows="1" fold="1" page="1" pageScale="1" pageWidth="1654" pageHeight="1169" math="0" shadow="0">
      <root>
        <mxCell id="0" />
        <mxCell id="1" parent="0" />
        
        <!-- タイトル -->
        <mxCell id="title" value="固定資産取得プロセス 業務フロー図" style="text;html=1;strokeColor=none;fillColor=none;align=center;verticalAlign=middle;whiteSpace=wrap;rounded=0;fontSize=18;fontStyle=1" parent="1" vertex="1">
          <mxGeometry x="600" y="20" width="400" height="40" as="geometry" />
        </mxCell>
        
        <!-- スイムレーンコンテナ -->
        <mxCell id="2" value="" style="swimlane;startSize=0;" parent="1" vertex="1">
          <mxGeometry x="20" y="80" width="1530" height="900" as="geometry" />
        </mxCell>
        
        <!-- 社外 -->
        <mxCell id="3" value="社外&lt;br&gt;（仕入先）" style="swimlane;html=1;startSize=60;fillColor=#F5F5F5;" parent="2" vertex="1">
          <mxGeometry width="170" height="900" as="geometry" />
        </mxCell>
        
        <mxCell id="start" value="開始" style="ellipse;whiteSpace=wrap;html=1;fillColor=#D5E8D4;strokeColor=#82B366;" parent="3" vertex="1">
          <mxGeometry x="35" y="80" width="100" height="40" as="geometry" />
        </mxCell>
        
        <!-- P-006 納品 -->
        <mxCell id="delivery" value="納品" style="rounded=1;whiteSpace=wrap;html=1;fillColor=#E8E8E8;strokeColor=#000000;" parent="3" vertex="1">
          <mxGeometry x="25" y="470" width="120" height="60" as="geometry" />
        </mxCell>
        
        <!-- 申請部門 -->
        <mxCell id="4" value="各事業部門&lt;br&gt;（申請者）" style="swimlane;html=1;startSize=60;fillColor=#E6F3FF;" parent="2" vertex="1">
          <mxGeometry x="170" width="170" height="900" as="geometry" />
        </mxCell>
        
        <!-- P-001 購入申請 -->
        <mxCell id="process-001" value="購入申請&lt;br&gt;(P-001)" style="rounded=1;whiteSpace=wrap;html=1;fillColor=#DAEEFF;strokeColor=#000000;" parent="4" vertex="1">
          <mxGeometry x="25" y="140" width="120" height="60" as="geometry" />
        </mxCell>
        
        <!-- R-001 不必要な資産取得 -->
        <mxCell id="risk-001" value="R-001&lt;br&gt;不必要な&lt;br&gt;資産取得" style="shape=note;whiteSpace=wrap;html=1;backgroundOutline=1;darkOpacity=0.05;fillColor=#FFE6E6;strokeColor=#B85450;size=15;fontSize=10;" parent="4" vertex="1">
          <mxGeometry x="150" y="130" width="60" height="40" as="geometry" />
        </mxCell>
        
        <!-- C-001 予算枠確認 -->
        <mxCell id="control-001" value="C-001&lt;br&gt;予算枠確認" style="shape=note;whiteSpace=wrap;html=1;backgroundOutline=1;darkOpacity=0.05;fillColor=#E6FFE6;strokeColor=#82B366;size=15;fontSize=10;" parent="4" vertex="1">
          <mxGeometry x="-40" y="150" width="60" height="40" as="geometry" />
        </mxCell>
        
        <!-- 部門長 -->
        <mxCell id="5" value="各事業部門&lt;br&gt;（部門長）" style="swimlane;html=1;startSize=60;fillColor=#E6F3FF;" parent="2" vertex="1">
          <mxGeometry x="340" width="170" height="900" as="geometry" />
        </mxCell>
        
        <!-- P-002 申請承認（第1次） -->
        <mxCell id="process-002" value="申請承認&lt;br&gt;（第1次）&lt;br&gt;(P-002)" style="rhombus;whiteSpace=wrap;html=1;fillColor=#FFE6E6;" parent="5" vertex="1">
          <mxGeometry x="35" y="220" width="100" height="80" as="geometry" />
        </mxCell>
        
        <!-- R-002 不適切な承認 -->
        <mxCell id="risk-002" value="R-002&lt;br&gt;不適切な&lt;br&gt;承認" style="shape=note;whiteSpace=wrap;html=1;backgroundOutline=1;darkOpacity=0.05;fillColor=#FFE6E6;strokeColor=#B85450;size=15;fontSize=10;" parent="5" vertex="1">
          <mxGeometry x="140" y="210" width="60" height="40" as="geometry" />
        </mxCell>
        
        <!-- C-002 部門長承認 -->
        <mxCell id="control-002" value="C-002&lt;br&gt;部門長承認" style="shape=note;whiteSpace=wrap;html=1;backgroundOutline=1;darkOpacity=0.05;fillColor=#E6FFE6;strokeColor=#82B366;size=15;fontSize=10;" parent="5" vertex="1">
          <mxGeometry x="-30" y="230" width="60" height="40" as="geometry" />
        </mxCell>
        
        <!-- 総務部 -->
        <mxCell id="6" value="総務部&lt;br&gt;（資産管理担当）" style="swimlane;html=1;startSize=60;fillColor=#F0F8E6;" parent="2" vertex="1">
          <mxGeometry x="510" width="170" height="900" as="geometry" />
        </mxCell>
        
        <!-- P-007 資産登録 -->
        <mxCell id="process-007" value="資産登録&lt;br&gt;(P-007)" style="rounded=1;whiteSpace=wrap;html=1;fillColor=#E6F0DC;strokeColor=#000000;" parent="6" vertex="1">
          <mxGeometry x="25" y="590" width="120" height="60" as="geometry" />
        </mxCell>
        
        <!-- R-007 登録漏れ・誤り -->
        <mxCell id="risk-007" value="R-007&lt;br&gt;登録漏れ&lt;br&gt;・誤り" style="shape=note;whiteSpace=wrap;html=1;backgroundOutline=1;darkOpacity=0.05;fillColor=#FFE6E6;strokeColor=#B85450;size=15;fontSize=10;" parent="6" vertex="1">
          <mxGeometry x="150" y="580" width="60" height="40" as="geometry" />
        </mxCell>
        
        <!-- C-007 登録内容確認 -->
        <mxCell id="control-007" value="C-007&lt;br&gt;登録内容確認" style="shape=note;whiteSpace=wrap;html=1;backgroundOutline=1;darkOpacity=0.05;fillColor=#E6FFE6;strokeColor=#82B366;size=15;fontSize=10;" parent="6" vertex="1">
          <mxGeometry x="-40" y="600" width="60" height="40" as="geometry" />
        </mxCell>
        
        <!-- P-010 現物確認 -->
        <mxCell id="process-010" value="現物確認&lt;br&gt;(P-010)" style="rounded=1;whiteSpace=wrap;html=1;fillColor=#E6F0DC;strokeColor=#000000;" parent="6" vertex="1">
          <mxGeometry x="25" y="720" width="120" height="60" as="geometry" />
        </mxCell>
        
        <!-- C-010 定期棚卸 -->
        <mxCell id="control-010" value="C-010&lt;br&gt;定期棚卸" style="shape=note;whiteSpace=wrap;html=1;backgroundOutline=1;darkOpacity=0.05;fillColor=#E6FFE6;strokeColor=#82B366;size=15;fontSize=10;" parent="6" vertex="1">
          <mxGeometry x="-40" y="730" width="60" height="40" as="geometry" />
        </mxCell>
        
        <!-- P-013 固定資産実査 -->
        <mxCell id="process-013" value="固定資産実査&lt;br&gt;(P-013)" style="rounded=1;whiteSpace=wrap;html=1;fillColor=#E6F0DC;strokeColor=#000000;" parent="6" vertex="1">
          <mxGeometry x="25" y="820" width="120" height="60" as="geometry" />
        </mxCell>
        
        <!-- C-013 年次実査 -->
        <mxCell id="control-013" value="C-013 ★&lt;br&gt;年次実査" style="shape=note;whiteSpace=wrap;html=1;backgroundOutline=1;darkOpacity=0.05;fillColor=#FFD700;strokeColor=#C8AB37;size=15;fontSize=10;fontStyle=1;" parent="6" vertex="1">
          <mxGeometry x="-40" y="830" width="60" height="40" as="geometry" />
        </mxCell>
        
        <!-- 総務部長 -->
        <mxCell id="7" value="総務部&lt;br&gt;（総務部長）" style="swimlane;html=1;startSize=60;fillColor=#F0F8E6;" parent="2" vertex="1">
          <mxGeometry x="680" width="170" height="900" as="geometry" />
        </mxCell>
        
        <!-- P-003 申請承認（第2次） -->
        <mxCell id="process-003" value="申請承認&lt;br&gt;（第2次）&lt;br&gt;(P-003)" style="rhombus;whiteSpace=wrap;html=1;fillColor=#FFE6E6;" parent="7" vertex="1">
          <mxGeometry x="35" y="300" width="100" height="80" as="geometry" />
        </mxCell>
        
        <!-- R-003 重複投資 -->
        <mxCell id="risk-003" value="R-003&lt;br&gt;重複投資" style="shape=note;whiteSpace=wrap;html=1;backgroundOutline=1;darkOpacity=0.05;fillColor=#FFE6E6;strokeColor=#B85450;size=15;fontSize=10;" parent="7" vertex="1">
          <mxGeometry x="140" y="290" width="60" height="40" as="geometry" />
        </mxCell>
        
        <!-- C-003 総務部審査 -->
        <mxCell id="control-003" value="C-003 ★&lt;br&gt;総務部審査" style="shape=note;whiteSpace=wrap;html=1;backgroundOutline=1;darkOpacity=0.05;fillColor=#FFD700;strokeColor=#C8AB37;size=15;fontSize=10;fontStyle=1;" parent="7" vertex="1">
          <mxGeometry x="-30" y="310" width="60" height="40" as="geometry" />
        </mxCell>
        
        <!-- 購買部 -->
        <mxCell id="8" value="購買部&lt;br&gt;（購買・検収担当）" style="swimlane;html=1;startSize=60;fillColor=#FFE8D8;" parent="2" vertex="1">
          <mxGeometry x="850" width="170" height="900" as="geometry" />
        </mxCell>
        
        <!-- P-005 発注処理 -->
        <mxCell id="process-005" value="発注処理&lt;br&gt;(P-005)" style="rounded=1;whiteSpace=wrap;html=1;fillColor=#FFE8D8;strokeColor=#000000;" parent="8" vertex="1">
          <mxGeometry x="25" y="410" width="120" height="60" as="geometry" />
        </mxCell>
        
        <!-- R-005 発注ミス -->
        <mxCell id="risk-005" value="R-005&lt;br&gt;発注ミス" style="shape=note;whiteSpace=wrap;html=1;backgroundOutline=1;darkOpacity=0.05;fillColor=#FFE6E6;strokeColor=#B85450;size=15;fontSize=10;" parent="8" vertex="1">
          <mxGeometry x="150" y="400" width="60" height="40" as="geometry" />
        </mxCell>
        
        <!-- C-005 発注内容照合 -->
        <mxCell id="control-005" value="C-005&lt;br&gt;発注内容照合" style="shape=note;whiteSpace=wrap;html=1;backgroundOutline=1;darkOpacity=0.05;fillColor=#E6FFE6;strokeColor=#82B366;size=15;fontSize=10;" parent="8" vertex="1">
          <mxGeometry x="-40" y="420" width="60" height="40" as="geometry" />
        </mxCell>
        
        <!-- P-006 検収 -->
        <mxCell id="process-006" value="検収&lt;br&gt;(P-006)" style="rounded=1;whiteSpace=wrap;html=1;fillColor=#FFE8D8;strokeColor=#000000;" parent="8" vertex="1">
          <mxGeometry x="25" y="530" width="120" height="60" as="geometry" />
        </mxCell>
        
        <!-- R-006 検収漏れ・誤り -->
        <mxCell id="risk-006" value="R-006&lt;br&gt;検収漏れ&lt;br&gt;・誤り" style="shape=note;whiteSpace=wrap;html=1;backgroundOutline=1;darkOpacity=0.05;fillColor=#FFE6E6;strokeColor=#B85450;size=15;fontSize=10;" parent="8" vertex="1">
          <mxGeometry x="150" y="520" width="60" height="40" as="geometry" />
        </mxCell>
        
        <!-- C-006 現物確認 -->
        <mxCell id="control-006" value="C-006&lt;br&gt;現物確認" style="shape=note;whiteSpace=wrap;html=1;backgroundOutline=1;darkOpacity=0.05;fillColor=#E6FFE6;strokeColor=#82B366;size=15;fontSize=10;" parent="8" vertex="1">
          <mxGeometry x="-40" y="540" width="60" height="40" as="geometry" />
        </mxCell>
        
        <!-- 経理部 -->
        <mxCell id="9" value="経理部&lt;br&gt;（経理担当）" style="swimlane;html=1;startSize=60;fillColor=#FFF0E6;" parent="2" vertex="1">
          <mxGeometry x="1020" width="170" height="900" as="geometry" />
        </mxCell>
        
        <!-- P-008 会計処理 -->
        <mxCell id="process-008" value="会計処理&lt;br&gt;(P-008)" style="rounded=1;whiteSpace=wrap;html=1;fillColor=#FFE8D8;strokeColor=#000000;" parent="9" vertex="1">
          <mxGeometry x="25" y="650" width="120" height="60" as="geometry" />
        </mxCell>
        
        <!-- R-008 計上誤り -->
        <mxCell id="risk-008" value="R-008&lt;br&gt;計上誤り" style="shape=note;whiteSpace=wrap;html=1;backgroundOutline=1;darkOpacity=0.05;fillColor=#FFE6E6;strokeColor=#B85450;size=15;fontSize=10;" parent="9" vertex="1">
          <mxGeometry x="150" y="640" width="60" height="40" as="geometry" />
        </mxCell>
        
        <!-- C-008 仕訳承認 -->
        <mxCell id="control-008" value="C-008 ★&lt;br&gt;仕訳承認" style="shape=note;whiteSpace=wrap;html=1;backgroundOutline=1;darkOpacity=0.05;fillColor=#FFD700;strokeColor=#C8AB37;size=15;fontSize=10;fontStyle=1;" parent="9" vertex="1">
          <mxGeometry x="-40" y="660" width="60" height="40" as="geometry" />
        </mxCell>
        
        <!-- P-009 支払処理 -->
        <mxCell id="process-009" value="支払処理&lt;br&gt;(P-009)" style="rounded=1;whiteSpace=wrap;html=1;fillColor=#FFE8D8;strokeColor=#000000;" parent="9" vertex="1">
          <mxGeometry x="25" y="730" width="120" height="60" as="geometry" />
        </mxCell>
        
        <!-- C-009 支払承認 -->
        <mxCell id="control-009" value="C-009&lt;br&gt;支払承認" style="shape=note;whiteSpace=wrap;html=1;backgroundOutline=1;darkOpacity=0.05;fillColor=#E6FFE6;strokeColor=#82B366;size=15;fontSize=10;" parent="9" vertex="1">
          <mxGeometry x="-40" y="740" width="60" height="40" as="geometry" />
        </mxCell>
        
        <!-- P-012 減価償却 -->
        <mxCell id="process-012" value="減価償却&lt;br&gt;(P-012)" style="rounded=1;whiteSpace=wrap;html=1;fillColor=#FFE8D8;strokeColor=#000000;" parent="9" vertex="1">
          <mxGeometry x="25" y="810" width="120" height="60" as="geometry" />
        </mxCell>
        
        <!-- C-012 償却計算検証 -->
        <mxCell id="control-012" value="C-012&lt;br&gt;償却計算&lt;br&gt;検証&lt;br&gt;[IT統制]" style="shape=note;whiteSpace=wrap;html=1;backgroundOutline=1;darkOpacity=0.05;fillColor=#B0E0E6;strokeColor=#5D7F99;size=15;fontSize=10;" parent="9" vertex="1">
          <mxGeometry x="-40" y="820" width="60" height="50" as="geometry" />
        </mxCell>
        
        <!-- 社内システム -->
        <mxCell id="10" value="社内システム&lt;br&gt;（資産管理/会計）" style="swimlane;html=1;startSize=60;fillColor=#F0E6FF;" parent="2" vertex="1">
          <mxGeometry x="1190" width="170" height="900" as="geometry" />
        </mxCell>
        
        <!-- S-001 資産管理システム -->
        <mxCell id="system-001" value="資産管理&lt;br&gt;システム&lt;br&gt;(S-001)" style="rectangle;whiteSpace=wrap;html=1;fillColor=#E8D8FF;strokeColor=#000000;" parent="10" vertex="1">
          <mxGeometry x="25" y="290" width="120" height="60" as="geometry" />
        </mxCell>
        
        <!-- S-002 購買管理システム -->
        <mxCell id="system-002" value="購買管理&lt;br&gt;システム&lt;br&gt;(S-002)" style="rectangle;whiteSpace=wrap;html=1;fillColor=#E8D8FF;strokeColor=#000000;" parent="10" vertex="1">
          <mxGeometry x="25" y="410" width="120" height="60" as="geometry" />
        </mxCell>
        
        <!-- S-003 会計システム -->
        <mxCell id="system-003" value="会計&lt;br&gt;システム&lt;br&gt;(S-003)" style="rectangle;whiteSpace=wrap;html=1;fillColor=#E8D8FF;strokeColor=#000000;" parent="10" vertex="1">
          <mxGeometry x="25" y="650" width="120" height="60" as="geometry" />
        </mxCell>
        
        <!-- 役員 -->
        <mxCell id="11" value="経営企画部&lt;br&gt;（役員）" style="swimlane;html=1;startSize=60;fillColor=#F5F5F5;" parent="2" vertex="1">
          <mxGeometry x="1360" width="170" height="900" as="geometry" />
        </mxCell>
        
        <!-- P-004 経営承認 -->
        <mxCell id="process-004" value="経営承認&lt;br&gt;(P-004)" style="rhombus;whiteSpace=wrap;html=1;fillColor=#FFE6E6;" parent="11" vertex="1">
          <mxGeometry x="35" y="370" width="100" height="80" as="geometry" />
        </mxCell>
        
        <!-- R-004 経営判断の誤り -->
        <mxCell id="risk-004" value="R-004&lt;br&gt;経営判断&lt;br&gt;の誤り" style="shape=note;whiteSpace=wrap;html=1;backgroundOutline=1;darkOpacity=0.05;fillColor=#FFE6E6;strokeColor=#B85450;size=15;fontSize=10;" parent="11" vertex="1">
          <mxGeometry x="140" y="360" width="60" height="40" as="geometry" />
        </mxCell>
        
        <!-- C-004 役員承認 -->
        <mxCell id="control-004" value="C-004 ★&lt;br&gt;役員承認" style="shape=note;whiteSpace=wrap;html=1;backgroundOutline=1;darkOpacity=0.05;fillColor=#FFD700;strokeColor=#C8AB37;size=15;fontSize=10;fontStyle=1;" parent="11" vertex="1">
          <mxGeometry x="-30" y="380" width="60" height="40" as="geometry" />
        </mxCell>
        
        <mxCell id="end" value="終了" style="ellipse;whiteSpace=wrap;html=1;fillColor=#F8CECC;strokeColor=#B85450;" parent="11" vertex="1">
          <mxGeometry x="45" y="840" width="80" height="40" as="geometry" />
        </mxCell>
        
        <!-- フロー線 -->
        <mxCell id="flow-1" style="edgeStyle=orthogonalEdgeStyle;rounded=0;orthogonalLoop=1;jettySize=auto;html=1;" parent="1" source="start" target="process-001" edge="1">
          <mxGeometry relative="1" as="geometry" />
        </mxCell>
        
        <mxCell id="flow-2" style="edgeStyle=orthogonalEdgeStyle;rounded=0;orthogonalLoop=1;jettySize=auto;html=1;" parent="1" source="process-001" target="process-002" edge="1">
          <mxGeometry relative="1" as="geometry" />
        </mxCell>
        
        <mxCell id="flow-3" value="承認" style="edgeStyle=orthogonalEdgeStyle;rounded=0;orthogonalLoop=1;jettySize=auto;html=1;" parent="1" source="process-002" target="process-003" edge="1">
          <mxGeometry relative="1" as="geometry" />
        </mxCell>
        
        <mxCell id="flow-3-1" value="差戻し" style="edgeStyle=orthogonalEdgeStyle;rounded=0;orthogonalLoop=1;jettySize=auto;html=1;entryX=0.5;entryY=0;entryDx=0;entryDy=0;" parent="1" source="process-002" target="process-001" edge="1">
          <mxGeometry relative="1" as="geometry">
            <Array as="points">
              <mxPoint x="280" y="340" />
              <mxPoint x="280" y="200" />
            </Array>
          </mxGeometry>
        </mxCell>
        
        <mxCell id="flow-4" value="100万円未満" style="edgeStyle=orthogonalEdgeStyle;rounded=0;orthogonalLoop=1;jettySize=auto;html=1;" parent="1" source="process-003" target="process-005" edge="1">
          <mxGeometry relative="1" as="geometry">
            <Array as="points">
              <mxPoint x="850" y="420" />
              <mxPoint x="850" y="520" />
            </Array>
          </mxGeometry>
        </mxCell>
        
        <mxCell id="flow-4-1" value="1000万円以上" style="edgeStyle=orthogonalEdgeStyle;rounded=0;orthogonalLoop=1;jettySize=auto;html=1;" parent="1" source="process-003" target="process-004" edge="1">
          <mxGeometry relative="1" as="geometry" />
        </mxCell>
        
        <mxCell id="flow-4-2" value="差戻し" style="edgeStyle=orthogonalEdgeStyle;rounded=0;orthogonalLoop=1;jettySize=auto;html=1;entryX=0.5;entryY=0;entryDx=0;entryDy=0;" parent="1" source="process-003" target="process-001" edge="1">
          <mxGeometry relative="1" as="geometry">
            <Array as="points">
              <mxPoint x="620" y="420" />
              <mxPoint x="620" y="180" />
              <mxPoint x="280" y="180" />
            </Array>
          </mxGeometry>
        </mxCell>
        
        <mxCell id="flow-5" value="承認" style="edgeStyle=orthogonalEdgeStyle;rounded=0;orthogonalLoop=1;jettySize=auto;html=1;" parent="1" source="process-004" target="process-005" edge="1">
          <mxGeometry relative="1" as="geometry">
            <Array as="points">
              <mxPoint x="1320" y="490" />
              <mxPoint x="1320" y="520" />
            </Array>
          </mxGeometry>
        </mxCell>
        
        <mxCell id="flow-5-1" value="差戻し" style="edgeStyle=orthogonalEdgeStyle;rounded=0;orthogonalLoop=1;jettySize=auto;html=1;entryX=0.5;entryY=0;entryDx=0;entryDy=0;" parent="1" source="process-004" target="process-001" edge="1">
          <mxGeometry relative="1" as="geometry">
            <Array as="points">
              <mxPoint x="1470" y="490" />
              <mxPoint x="1470" y="160" />
              <mxPoint x="280" y="160" />
            </Array>
          </mxGeometry>
        </mxCell>
        
        <mxCell id="flow-6" style="edgeStyle=orthogonalEdgeStyle;rounded=0;orthogonalLoop=1;jettySize=auto;html=1;dashed=1;" parent="1" source="process-005" target="system-002" edge="1">
          <mxGeometry relative="1" as="geometry" />
        </mxCell>
        
        <mxCell id="flow-7" style="edgeStyle=orthogonalEdgeStyle;rounded=0;orthogonalLoop=1;jettySize=auto;html=1;" parent="1" source="process-005" target="delivery" edge="1">
          <mxGeometry relative="1" as="geometry">
            <Array as="points">
              <mxPoint x="85" y="520" />
            </Array>
          </mxGeometry>
        </mxCell>
        
        <mxCell id="flow-8" style="edgeStyle=orthogonalEdgeStyle;rounded=0;orthogonalLoop=1;jettySize=auto;html=1;" parent="1" source="delivery" target="process-006" edge="1">
          <mxGeometry relative="1" as="geometry">
            <Array as="points">
              <mxPoint x="105" y="640" />
            </Array>
          </mxGeometry>
        </mxCell>
        
        <mxCell id="flow-9" style="edgeStyle=orthogonalEdgeStyle;rounded=0;orthogonalLoop=1;jettySize=auto;html=1;" parent="1" source="process-006" target="process-007" edge="1">
          <mxGeometry relative="1" as="geometry">
            <Array as="points">
              <mxPoint x="615" y="640" />
              <mxPoint x="615" y="700" />
            </Array>
          </mxGeometry>
        </mxCell>
        
        <mxCell id="flow-10" style="edgeStyle=orthogonalEdgeStyle;rounded=0;orthogonalLoop=1;jettySize=auto;html=1;dashed=1;" parent="1" source="process-007" target="system-001" edge="1">
          <mxGeometry relative="1" as="geometry">
            <Array as="points">
              <mxPoint x="1275" y="700" />
            </Array>
          </mxGeometry>
        </mxCell>
        
        <mxCell id="flow-11" style="edgeStyle=orthogonalEdgeStyle;rounded=0;orthogonalLoop=1;jettySize=auto;html=1;" parent="1" source="process-007" target="process-008" edge="1">
          <mxGeometry relative="1" as="geometry">
            <Array as="points">
              <mxPoint x="615" y="760" />
              <mxPoint x="1125" y="760" />
            </Array>
          </mxGeometry>
        </mxCell>
        
        <mxCell id="flow-12" style="edgeStyle=orthogonalEdgeStyle;rounded=0;orthogonalLoop=1;jettySize=auto;html=1;dashed=1;" parent="1" source="process-008" target="system-003" edge="1">
          <mxGeometry relative="1" as="geometry" />
        </mxCell>
        
        <mxCell id="flow-13" style="edgeStyle=orthogonalEdgeStyle;rounded=0;orthogonalLoop=1;jettySize=auto;html=1;" parent="1" source="process-008" target="process-009" edge="1">
          <mxGeometry relative="1" as="geometry" />
        </mxCell>
        
        <mxCell id="flow-14" style="edgeStyle=orthogonalEdgeStyle;rounded=0;orthogonalLoop=1;jettySize=auto;html=1;" parent="1" source="process-009" target="process-010" edge="1">
          <mxGeometry relative="1" as="geometry">
            <Array as="points">
              <mxPoint x="615" y="840" />
            </Array>
          </mxGeometry>
        </mxCell>
        
        <mxCell id="flow-15" style="edgeStyle=orthogonalEdgeStyle;rounded=0;orthogonalLoop=1;jettySize=auto;html=1;" parent="1" source="process-010" target="process-012" edge="1">
          <mxGeometry relative="1" as="geometry">
            <Array as="points">
              <mxPoint x="615" y="880" />
              <mxPoint x="1125" y="880" />
            </Array>
          </mxGeometry>
        </mxCell>
        
        <mxCell id="flow-16" style="edgeStyle=orthogonalEdgeStyle;rounded=0;orthogonalLoop=1;jettySize=auto;html=1;" parent="1" source="process-012" target="process-013" edge="1">
          <mxGeometry relative="1" as="geometry">
            <Array as="points">
              <mxPoint x="615" y="920" />
            </Array>
          </mxGeometry>
        </mxCell>
        
        <mxCell id="flow-17" style="edgeStyle=orthogonalEdgeStyle;rounded=0;orthogonalLoop=1;jettySize=auto;html=1;" parent="1" source="process-013" target="end" edge="1">
          <mxGeometry relative="1" as="geometry">
            <Array as="points">
              <mxPoint x="615" y="940" />
              <mxPoint x="1445" y="940" />
            </Array>
          </mxGeometry>
        </mxCell>
        
        <mxCell id="flow-18" style="edgeStyle=orthogonalEdgeStyle;rounded=0;orthogonalLoop=1;jettySize=auto;html=1;dashed=1;" parent="1" source="system-001" target="system-003" edge="1">
          <mxGeometry relative="1" as="geometry">
            <Array as="points">
              <mxPoint x="1320" y="400" />
              <mxPoint x="1320" y="760" />
            </Array>
          </mxGeometry>
        </mxCell>
        
        <mxCell id="flow-19" style="edgeStyle=orthogonalEdgeStyle;rounded=0;orthogonalLoop=1;jettySize=auto;html=1;dashed=1;" parent="1" source="system-002" target="system-001" edge="1">
          <mxGeometry relative="1" as="geometry" />
        </mxCell>
        
        <!-- レジェンド -->
        <mxCell id="legend-box" value="" style="rounded=0;whiteSpace=wrap;html=1;fillColor=#F5F5F5;strokeColor=#666666;strokeWidth=1;" parent="1" vertex="1">
          <mxGeometry x="20" y="1000" width="1200" height="100" as="geometry" />
        </mxCell>
        
        <mxCell id="legend-title" value="【凡例】" style="text;html=1;fontSize=14;fontStyle=1;verticalAlign=middle;align=left;" parent="1" vertex="1">
          <mxGeometry x="30" y="1010" width="100" height="30" as="geometry" />
        </mxCell>
        
        <!-- プロセス記号 -->
        <mxCell id="legend-process" value="業務プロセス" style="rounded=1;whiteSpace=wrap;html=1;fillColor=#DAEEFF;" parent="1" vertex="1">
          <mxGeometry x="30" y="1050" width="100" height="40" as="geometry" />
        </mxCell>
        
        <!-- 承認判断 -->
        <mxCell id="legend-decision" value="承認・判断" style="rhombus;whiteSpace=wrap;html=1;fillColor=#FFE6E6;" parent="1" vertex="1">
          <mxGeometry x="140" y="1050" width="80" height="40" as="geometry" />
        </mxCell>
        
        <!-- リスク付箋 -->
        <mxCell id="legend-risk" value="R-XXX&lt;br&gt;リスク" style="shape=note;whiteSpace=wrap;html=1;backgroundOutline=1;darkOpacity=0.05;fillColor=#FFE6E6;strokeColor=#B85450;size=15;fontSize=10;" parent="1" vertex="1">
          <mxGeometry x="230" y="1050" width="60" height="40" as="geometry" />
        </mxCell>
        
        <!-- 統制付箋 -->
        <mxCell id="legend-control" value="C-XXX&lt;br&gt;統制" style="shape=note;whiteSpace=wrap;html=1;backgroundOutline=1;darkOpacity=0.05;fillColor=#E6FFE6;strokeColor=#82B366;size=15;fontSize=10;" parent="1" vertex="1">
          <mxGeometry x="300" y="1050" width="60" height="40" as="geometry" />
        </mxCell>
        
        <!-- キーコントロール付箋 -->
        <mxCell id="legend-key-control" value="C-XXX ★&lt;br&gt;キーコントロール" style="shape=note;whiteSpace=wrap;html=1;backgroundOutline=1;darkOpacity=0.05;fillColor=#FFD700;strokeColor=#C8AB37;size=15;fontSize=10;fontStyle=1;" parent="1" vertex="1">
          <mxGeometry x="370" y="1050" width="80" height="40" as="geometry" />
        </mxCell>
        
        <!-- IT統制付箋 -->
        <mxCell id="legend-it-control" value="C-XXX&lt;br&gt;IT統制" style="shape=note;whiteSpace=wrap;html=1;backgroundOutline=1;darkOpacity=0.05;fillColor=#B0E0E6;strokeColor=#5D7F99;size=15;fontSize=10;" parent="1" vertex="1">
          <mxGeometry x="460" y="1050" width="60" height="40" as="geometry" />
        </mxCell>
        
        <!-- システム処理 -->
        <mxCell id="legend-system" value="システム処理" style="rectangle;whiteSpace=wrap;html=1;fillColor=#E8D8FF;" parent="1" vertex="1">
          <mxGeometry x="530" y="1050" width="100" height="40" as="geometry" />
        </mxCell>
        
        <!-- フロー線の説明 -->
        <mxCell id="legend-flow-normal" value="通常フロー" style="text;html=1;fontSize=12;verticalAlign=middle;align=left;" parent="1" vertex="1">
          <mxGeometry x="650" y="1050" width="80" height="20" as="geometry" />
        </mxCell>
        
        <mxCell id="legend-line-normal" value="" style="endArrow=classic;html=1;strokeWidth=1;" parent="1" edge="1">
          <mxGeometry width="50" height="50" relative="1" as="geometry">
            <mxPoint x="730" y="1060" as="sourcePoint" />
            <mxPoint x="800" y="1060" as="targetPoint" />
          </mxGeometry>
        </mxCell>
        
        <mxCell id="legend-flow-system" value="システム連携" style="text;html=1;fontSize=12;verticalAlign=middle;align=left;" parent="1" vertex="1">
          <mxGeometry x="650" y="1070" width="80" height="20" as="geometry" />
        </mxCell>
        
        <mxCell id="legend-line-system" value="" style="endArrow=classic;html=1;strokeWidth=1;dashed=1;" parent="1" edge="1">
          <mxGeometry width="50" height="50" relative="1" as="geometry">
            <mxPoint x="730" y="1080" as="sourcePoint" />
            <mxPoint x="800" y="1080" as="targetPoint" />
          </mxGeometry>
        </mxCell>
        
        <!-- 参照番号の説明 -->
        <mxCell id="legend-reference" value="※ P-XXX: プロセス番号、R-XXX: リスク番号、C-XXX: 統制番号、S-XXX: システム連携番号は業務記述書と対応" style="text;html=1;fontSize=11;verticalAlign=middle;align=left;fontStyle=2;" parent="1" vertex="1">
          <mxGeometry x="820" y="1055" width="380" height="30" as="geometry" />
        </mxCell>
        
      </root>
    </mxGraphModel>
  </diagram>
</mxfile>